HIERARCHY
ROOT Hips
{
	OFFSET 0.00000 0.00000 0.00000
	CHANNELS 6 Xposition Yposition Zposition Zrotation Yrotation Xrotation 
	JOINT LHipJoint
	{
		OFFSET 0 0 0
		CHANNELS 3 Zrotation Yrotation Xrotation
		JOINT LeftUpLeg
		{
			OFFSET 1.62964 -1.40469 0.78906
			CHANNELS 3 Zrotation Yrotation Xrotation
			JOINT LeftLeg
			{
				OFFSET 2.29640 -6.30932 0.00000
				CHANNELS 3 Zrotation Yrotation Xrotation
				JOINT LeftFoot
				{
					OFFSET 2.29451 -6.30412 0.00000
					CHANNELS 3 Zrotation Yrotation Xrotation
					JOINT LeftToeBase
					{
						OFFSET 0.03611 -0.09921 1.56387
						CHANNELS 3 Zrotation Yrotation Xrotation
						End Site
						{
							OFFSET 0.00000 -0.00000 0.80291
						}
					}
				}
			}
		}
	}
	JOINT RHipJoint
	{
		OFFSET 0 0 0
		CHANNELS 3 Zrotation Yrotation Xrotation
		JOINT RightUpLeg
		{
			OFFSET -1.73712 -1.40469 0.78906
			CHANNELS 3 Zrotation Yrotation Xrotation
			JOINT RightLeg
			{
				OFFSET -2.28137 -6.26801 0.00000
				CHANNELS 3 Zrotation Yrotation Xrotation
				JOINT RightFoot
				{
					OFFSET -2.28681 -6.28298 0.00000
					CHANNELS 3 Zrotation Yrotation Xrotation
					JOINT RightToeBase
					{
						OFFSET -0.15927 -0.43759 1.61103
						CHANNELS 3 Zrotation Yrotation Xrotation
						End Site
						{
							OFFSET -0.00000 -0.00000 0.84630
						}
					}
				}
			}
		}
	}
	JOINT LowerBack
	{
		OFFSET 0 0 0
		CHANNELS 3 Zrotation Yrotation Xrotation
		JOINT Spine
		{
			OFFSET -0.04227 2.04338 -0.00225
			CHANNELS 3 Zrotation Yrotation Xrotation
			JOINT Spine1
			{
				OFFSET -0.02148 2.04482 -0.04273
				CHANNELS 3 Zrotation Yrotation Xrotation
				JOINT Neck
				{
					OFFSET 0 0 0
					CHANNELS 3 Zrotation Yrotation Xrotation
					JOINT Neck1
					{
						OFFSET 0.09180 1.44629 0.19359
						CHANNELS 3 Zrotation Yrotation Xrotation
						JOINT Head
						{
							OFFSET 0.00887 1.40645 0.14750
							CHANNELS 3 Zrotation Yrotation Xrotation
							End Site
							{
								OFFSET -0.00669 1.50671 0.03707
							}
						}
					}
				}
				JOINT LeftShoulder
				{
					OFFSET 0 0 0
					CHANNELS 3 Zrotation Yrotation Xrotation
					JOINT LeftArm
					{
						OFFSET 2.17674 1.86763 -0.06520
						CHANNELS 3 Zrotation Yrotation Xrotation
						JOINT LeftForeArm
						{
							OFFSET 4.65776 -0.00000 0.00000
							CHANNELS 3 Zrotation Yrotation Xrotation
							JOINT LeftHand
							{
								OFFSET 3.55539 -0.00000 0.00000
								CHANNELS 3 Zrotation Yrotation Xrotation
								JOINT LeftFingerBase
								{
									OFFSET 0 0 0
									CHANNELS 3 Zrotation Yrotation Xrotation
									JOINT LeftHandIndex1
									{
										OFFSET 0.70726 -0.00000 0.00000
										CHANNELS 3 Zrotation Yrotation Xrotation
										End Site
										{
											OFFSET 0.57022 -0.00000 0.00000
										}
									}
								}
								JOINT LThumb
								{
									OFFSET 0 0 0
									CHANNELS 3 Zrotation Yrotation Xrotation
									End Site
									{
										OFFSET 0.57892 -0.00000 0.57892
									}
								}
							}
						}
					}
				}
				JOINT RightShoulder
				{
					OFFSET 0 0 0
					CHANNELS 3 Zrotation Yrotation Xrotation
					JOINT RightArm
					{
						OFFSET -2.80694 1.55459 -0.32496
						CHANNELS 3 Zrotation Yrotation Xrotation
						JOINT RightForeArm
						{
							OFFSET -4.71925 -0.00000 -0.00000
							CHANNELS 3 Zrotation Yrotation Xrotation
							JOINT RightHand
							{
								OFFSET -3.56990 -0.00000 0.00000
								CHANNELS 3 Zrotation Yrotation Xrotation
								JOINT RightFingerBase
								{
									OFFSET 0 0 0
									CHANNELS 3 Zrotation Yrotation Xrotation
									JOINT RightHandIndex1
									{
										OFFSET -0.50776 -0.00000 0.00000
										CHANNELS 3 Zrotation Yrotation Xrotation
										End Site
										{
											OFFSET -0.40937 -0.00000 0.00000
										}
									}
								}
								JOINT RThumb
								{
									OFFSET 0 0 0
									CHANNELS 3 Zrotation Yrotation Xrotation
									End Site
									{
										OFFSET -0.41562 -0.00000 0.41562
									}
								}
							}
						}
					}
				}
			}
		}
	}
}
MOTION
Frames: 15
Frame Time: .0083333
3.2583 17.3936 17.8729 172.0990 -5.4652 -150.0110 0.0000 0.0000 0.0000 -2.4665 -32.2666 -45.2379 14.7199 19.3180 74.3915 1.5496 -1.8206 -23.0255 4.4052 -12.6810 -38.1856 0.0000 0.0000 0.0000 6.8160 14.3426 -33.5041 -0.6767 -5.2601 14.6518 -0.7456 -5.3837 -19.1406 -1.1174 6.7150 -18.8738 -8.5074 -4.7348 -19.7988 -1.4765 -4.2836 1.4950 1.7921 -2.5981 13.3982 -0.2638 -2.9584 -1.2300 0.3131 -2.3294 22.2169 0.0803 -0.4583 6.9798 0.0000 -0.0000 0.0000 -80.0297 -2.0046 20.2250 16.7047 -26.4668 -3.9548 -0.0000 -0.0000 0.6804 21.4713 -12.7100 -4.9460 -7.1250 0.0000 -0.0000 -4.0151 16.3779 2.7268 0.0000 -0.0000 0.0000 92.7187 -11.1780 7.7091 -19.6958 30.2742 -5.3772 0.0000 -0.0000 -7.2077 -5.1893 -56.5757 4.3347 7.1250 -0.0000 -0.0000 81.9632 -73.8988 -65.0455
3.2440 17.4060 17.7500 172.6930 -4.0466 -151.8040 0.0000 0.0000 0.0000 -4.4900 -30.9557 -42.1891 14.6341 19.2952 74.1321 1.5887 -1.0133 -23.5410 3.9801 -12.1339 -36.2075 0.0000 0.0000 0.0000 8.0380 14.2476 -31.0296 -0.6170 -5.0271 13.9858 -0.7566 -4.1190 -18.4312 -1.1814 6.8983 -19.4145 -7.7405 -3.9372 -19.8091 -1.6991 -3.3016 2.2313 1.3990 -2.0958 14.0966 -0.1210 -2.8516 -0.5978 0.2730 -2.2503 21.3607 0.0515 -0.4407 6.5889 0.0000 0.0000 0.0000 -80.1088 -2.1436 20.5774 16.8694 -26.6853 -4.0285 -0.0000 -0.0000 0.5715 21.6718 -12.6703 -4.9814 -7.1250 0.0000 -0.0000 -3.8747 16.4007 2.6291 0.0000 0.0000 0.0000 92.6920 -11.1225 7.7112 -19.6707 30.2435 -5.3645 0.0000 -0.0000 -7.3460 -5.8424 -56.3484 4.8685 7.1250 -0.0000 -0.0000 81.0360 -74.1080 -64.3688
3.3025 17.4027 17.8022 172.1090 -5.1887 -150.6300 0.0000 0.0000 0.0000 -3.1907 -31.9469 -45.3444 15.3610 19.4760 76.3216 1.5859 -1.4804 -23.3899 3.6755 -11.7156 -34.7333 0.0000 0.0000 0.0000 7.4293 14.0019 -32.3679 -0.6282 -5.0715 14.1125 -0.7050 -5.0325 -18.4781 -1.1654 6.8529 -19.2803 -8.1150 -4.4081 -19.7510 -1.5470 -3.9050 1.7787 1.6079 -2.3962 13.6261 -0.3530 -3.0348 -1.4480 0.5001 -2.4180 22.5969 0.1502 -0.4741 7.1467 0.0000 -0.0000 0.0000 -80.1268 -2.1740 20.9501 17.0894 -26.9755 -4.1278 -0.0000 -0.0000 0.4965 21.5022 -12.6769 -4.9412 -7.1250 0.0000 -0.0000 -3.9924 16.4101 2.7085 0.0000 -0.0000 0.0000 92.7139 -11.0565 7.7082 -19.7099 30.2913 -5.3843 0.0000 -0.0000 -7.4906 -6.4244 -56.5503 5.3671 7.1250 -0.0000 -0.0000 81.6422 -74.3336 -65.2286
3.3245 17.4070 17.7642 172.0880 -4.8206 -151.0250 0.0000 0.0000 0.0000 -3.8112 -31.6214 -45.2624 15.6767 19.5458 77.2669 1.6158 -0.9530 -23.7627 4.0787 -12.2644 -36.6739 0.0000 0.0000 0.0000 7.5776 13.9921 -31.8222 -0.6190 -5.0351 14.0086 -0.7296 -4.6854 -18.5070 -1.1483 6.8043 -19.1369 -8.0961 -4.2150 -19.5992 -1.5592 -3.6508 1.9056 1.6704 -2.2786 13.6585 -0.3134 -2.8981 -1.1702 0.4118 -2.2727 22.0151 0.1243 -0.4325 6.9054 -0.0000 -0.0000 0.0000 -80.2481 -2.2368 21.1303 17.1568 -27.0640 -4.1584 -0.0000 -0.0000 0.5801 21.0011 -12.9536 -4.9184 -7.1250 0.0000 -0.0000 -4.3495 16.1651 2.9753 -0.0000 -0.0000 0.0000 92.5538 -10.9415 7.7707 -19.7405 30.3284 -5.3997 0.0000 -0.0000 -7.3369 -5.6793 -56.9115 4.7629 7.1250 -0.0000 -0.0000 83.0499 -74.0982 -66.3590
3.3615 17.4175 17.7555 171.9750 -4.8421 -151.2150 0.0000 0.0000 0.0000 -3.9906 -31.5813 -45.7776 16.0762 19.6268 78.4585 1.6074 -0.3151 -23.8936 4.5322 -12.8368 -38.7606 0.0000 0.0000 0.0000 7.5936 14.1802 -31.5163 -0.6199 -5.0387 14.0190 -0.7609 -4.7748 -18.8901 -1.0405 6.4873 -18.2049 -8.3174 -4.2202 -19.1241 -1.4629 -3.6598 1.9040 1.9289 -2.2974 13.4037 -0.5682 -2.9620 -1.4949 0.5856 -2.3422 22.4145 0.2177 -0.4588 7.0994 -0.0000 0.0000 0.0000 -80.3942 -2.3248 21.2074 17.1397 -27.0416 -4.1507 -0.0000 -0.0000 0.8675 21.0273 -13.1496 -4.9979 -7.1250 0.0000 -0.0000 -4.3389 15.9549 2.9877 -0.0000 0.0000 0.0000 92.3236 -10.7668 7.9549 -19.6659 30.2377 -5.3621 0.0000 -0.0000 -7.3330 -5.5512 -56.7155 4.6450 7.1250 -0.0000 -0.0000 82.3826 -74.0386 -65.6243
3.3920 17.4203 17.7466 171.8830 -5.0238 -151.1170 0.0000 0.0000 0.0000 -3.8559 -31.6547 -46.9343 16.5932 19.7194 79.9943 1.6261 -0.3576 -24.0203 4.5116 -12.8118 -38.6679 0.0000 0.0000 0.0000 7.6828 14.1584 -31.4254 -0.5964 -4.9439 13.7486 -0.7509 -5.0220 -18.9496 -1.0433 6.4957 -18.2298 -8.3921 -4.3126 -19.0488 -1.3441 -3.7872 1.8362 2.0719 -2.3620 13.3092 -0.6918 -2.8651 -1.1967 0.6254 -2.2264 22.0825 0.2603 -0.4196 6.9402 -0.0000 -0.0000 0.0000 -80.5280 -2.3258 21.3349 17.1876 -27.1044 -4.1724 -0.0000 -0.0000 1.0014 21.2368 -13.2866 -5.1037 -7.1250 0.0000 -0.0000 -4.2000 15.7888 2.9067 -0.0000 -0.0000 0.0000 92.0824 -10.6200 8.1769 -19.6046 30.1630 -5.3312 0.0000 -0.0000 -7.6569 -5.6141 -56.4895 4.6856 7.1250 -0.0000 -0.0000 81.5777 -74.0409 -64.8273
3.4172 17.4173 17.7439 171.7950 -5.3700 -150.5020 0.0000 0.0000 0.0000 -3.2112 -31.9774 -49.1255 17.2523 19.8180 81.9429 1.6549 -1.2085 -23.9811 3.9070 -12.0357 -35.8583 0.0000 0.0000 0.0000 7.5465 14.1999 -31.9415 -0.5663 -4.8196 13.3946 -0.7050 -5.5177 -18.8135 -1.0852 6.6208 -18.5967 -8.2823 -4.3977 -19.4518 -1.2540 -3.9107 1.6268 2.0586 -2.4108 13.3106 -0.6968 -2.9873 -1.4676 0.5534 -2.3148 22.6369 0.2329 -0.4423 7.1691 -0.0000 0.0000 0.0000 -80.5759 -2.3515 21.6088 17.2220 -27.1496 -4.1882 -0.0000 -0.0000 1.1772 21.1168 -13.3208 -5.0849 -7.1250 0.0000 -0.0000 -4.2840 15.7646 2.9674 -0.0000 0.0000 0.0000 92.0353 -10.5126 7.9506 -19.6127 30.1729 -5.3353 0.0000 -0.0000 -7.5471 -4.1599 -56.6555 3.4769 7.1250 -0.0000 -0.0000 82.4518 -73.5440 -65.1197
3.4243 17.4237 17.6929 172.0370 -4.8370 -151.0770 0.0000 0.0000 0.0000 -3.9331 -31.3620 -48.9604 17.5517 19.8557 82.8250 1.6397 -1.7178 -23.7313 3.7472 -11.8162 -35.0850 0.0000 0.0000 0.0000 8.0387 14.2210 -31.0567 -0.5345 -4.6844 13.0107 -0.7195 -4.9417 -18.5704 -0.9665 6.2594 -17.5389 -7.8649 -4.0328 -19.5515 -1.3891 -3.4729 1.8873 1.7972 -2.1800 13.5860 -0.5525 -3.0767 -1.5747 0.5501 -2.4260 22.8384 0.2003 -0.4739 7.2526 -0.0000 0.0000 0.0000 -80.4205 -2.4085 22.0676 17.2721 -27.2151 -4.2110 -0.0000 -0.0000 1.2925 21.0856 -12.9078 -4.9228 -7.1250 0.0000 -0.0000 -4.2893 16.2055 2.9301 -0.0000 0.0000 0.0000 92.1968 -10.2977 7.6390 -19.5930 30.1489 -5.3254 0.0000 -0.0000 -7.1170 -3.2007 -56.9240 2.6829 7.1250 -0.0000 -0.0000 83.5581 -73.2325 -65.8634
3.4590 17.4238 17.7084 171.7680 -5.2549 -150.5850 0.0000 0.0000 0.0000 -3.5957 -31.6082 -50.8709 18.0664 19.9101 84.3384 1.6321 -2.1266 -23.5726 3.4793 -11.4332 -33.7553 0.0000 0.0000 0.0000 7.7525 14.1582 -31.5540 -0.5456 -4.7322 13.1463 -0.7313 -5.1830 -18.8556 -0.8079 5.7363 -16.0212 -8.0183 -4.2407 -19.6966 -1.3239 -3.7149 1.8038 1.8728 -2.3050 13.6142 -0.5221 -3.0419 -1.6891 0.5951 -2.4088 22.7864 0.2091 -0.4665 7.2556 -0.0000 0.0000 0.0000 -80.3642 -2.6215 22.2205 17.2718 -27.2147 -4.2109 -0.0000 -0.0000 1.3090 21.0617 -12.5221 -4.7729 -7.1250 0.0000 -0.0000 -4.2918 16.6167 2.8935 -0.0000 0.0000 0.0000 92.1576 -9.8352 7.7206 -19.5460 30.0915 -5.3018 0.0000 -0.0000 -6.9591 -3.1731 -57.2091 2.6683 7.1250 -0.0000 -0.0000 84.5118 -73.2440 -66.8379
3.4700 17.4251 17.6649 171.9550 -4.8433 -151.1020 0.0000 0.0000 0.0000 -4.3285 -31.0408 -50.7354 18.2761 19.9286 84.9538 1.6077 -3.5377 -23.0940 2.0074 -8.8816 -25.4255 0.0000 0.0000 0.0000 8.1972 14.1036 -30.7614 -0.5311 -4.6698 12.9692 -0.7490 -4.7857 -18.7744 -0.8719 5.9534 -16.6494 -7.8965 -4.0163 -19.6349 -1.2689 -3.4342 1.9715 1.9555 -2.1708 13.7412 -0.4489 -3.0452 -1.7925 0.4480 -2.3803 22.8844 0.1503 -0.4547 7.3028 -0.0000 -0.0000 0.0000 -80.5521 -2.6850 22.1572 17.1889 -27.1061 -4.1730 -0.0000 -0.0000 1.5186 20.8087 -12.6539 -4.7590 -7.1250 0.0000 -0.0000 -4.4718 16.5010 3.0268 -0.0000 -0.0000 0.0000 91.9265 -9.7213 8.0084 -19.6780 30.2525 -5.3682 0.0000 -0.0000 -7.1684 -3.5584 -57.1289 2.9898 7.1250 -0.0000 -0.0000 84.1702 -73.3722 -66.6425
3.5156 17.4245 17.6914 171.6290 -5.4457 -150.3830 0.0000 0.0000 0.0000 -3.7884 -31.3792 -52.9567 18.7644 19.9634 86.3851 1.5555 -4.6925 -22.5247 1.0460 -6.5039 -18.2538 0.0000 0.0000 0.0000 7.8377 14.2000 -31.4739 -0.5332 -4.6792 12.9957 -0.7069 -5.5036 -18.8240 -0.9549 6.2226 -17.4316 -8.3224 -4.2643 -19.5657 -1.1142 -3.7187 1.6137 2.2961 -2.3286 13.3538 -0.2966 -3.0769 -1.5766 0.2798 -2.3830 22.8388 0.0724 -0.4502 7.2450 0.0000 -0.0000 0.0000 -80.6232 -2.5678 22.3462 17.2136 -27.1385 -4.1843 -0.0000 -0.0000 1.5846 20.6474 -12.6796 -4.7283 -7.1250 0.0000 -0.0000 -4.5844 16.4888 3.1047 0.0000 -0.0000 0.0000 91.8395 -9.8455 8.2929 -19.8732 30.4893 -5.4669 0.0000 -0.0000 -7.5118 -4.3920 -56.9936 3.6853 7.1250 -0.0000 -0.0000 83.5560 -73.6530 -66.3511
3.5164 17.4325 17.6226 172.0340 -4.5474 -151.4330 0.0000 0.0000 0.0000 -5.1589 -30.1684 -51.7717 18.7854 19.9646 86.4467 1.5136 -5.0185 -22.1676 0.9223 -6.1186 -17.1288 0.0000 0.0000 0.0000 8.6789 14.1049 -30.1231 -0.5115 -4.5841 12.7260 -0.7146 -4.6484 -18.3244 -1.0425 6.4936 -18.2234 -7.8746 -3.7770 -19.2612 -1.2363 -3.1645 1.8551 2.0933 -2.0369 13.3567 -0.2935 -3.1392 -1.4212 0.2399 -2.4108 23.0281 0.0605 -0.4478 7.2795 0.0000 0.0000 0.0000 -80.6145 -2.2791 22.5760 17.2472 -27.1826 -4.1997 -0.0000 -0.0000 1.5817 20.8540 -12.4763 -4.7047 -7.1250 0.0000 -0.0000 -4.4343 16.6847 2.9835 0.0000 0.0000 0.0000 91.8059 -10.0968 8.6998 -20.1009 30.7637 -5.5829 0.0000 -0.0000 -7.8551 -4.8535 -57.4140 4.0923 7.1250 -0.0000 -0.0000 84.9299 -73.8376 -67.9490
3.5222 17.4368 17.5783 172.2070 -4.0295 -151.8710 0.0000 0.0000 0.0000 -6.0154 -29.4790 -51.6676 18.9065 19.9713 86.8015 1.4621 -5.1936 -21.7542 0.8846 -5.9956 -16.7716 0.0000 0.0000 0.0000 9.0806 13.9441 -29.5812 -0.5038 -4.5499 12.6292 -0.7240 -4.1162 -18.0867 -1.0711 6.5790 -18.4740 -7.6539 -3.5720 -19.6004 -1.2718 -2.8762 2.1844 1.9920 -1.8993 13.8971 -0.3882 -3.2848 -1.8092 0.3462 -2.6172 23.3638 0.0938 -0.5404 7.4631 0.0000 0.0000 0.0000 -80.6628 -2.6159 22.5134 17.1315 -27.0308 -4.1469 -0.0000 -0.0000 1.6449 20.8803 -12.4620 -4.7058 -7.1250 0.0000 -0.0000 -4.4156 16.6974 2.9696 0.0000 0.0000 0.0000 91.7234 -9.6749 8.9502 -20.1200 30.7867 -5.5926 0.0000 -0.0000 -7.8589 -5.1602 -57.5815 4.3594 7.1250 -0.0000 -0.0000 85.4742 -73.9500 -68.6298
3.5415 17.4382 17.5619 172.1690 -3.9280 -151.9250 0.0000 0.0000 0.0000 -6.4470 -29.2781 -52.3394 19.1242 19.9816 87.4386 1.4322 -5.5124 -21.4928 0.9763 -6.2900 -17.6282 0.0000 0.0000 0.0000 9.1645 13.9454 -29.3897 -0.4926 -4.5002 12.4883 -0.7249 -4.1062 -18.0894 -1.1505 6.8105 -19.1552 -7.7023 -3.5776 -19.7676 -1.2306 -2.8494 2.3035 2.0619 -1.8982 14.1399 -0.4063 -3.1896 -1.7397 0.3703 -2.5218 23.1122 0.1106 -0.5078 7.3677 -0.0000 -0.0000 0.0000 -80.6785 -2.7006 22.5166 17.1340 -27.0341 -4.1481 -0.0000 -0.0000 1.5116 20.7703 -12.3964 -4.6547 -7.1250 0.0000 -0.0000 -4.4898 16.7770 3.0121 -0.0000 -0.0000 0.0000 91.5741 -9.2762 9.2389 -20.1770 30.8550 -5.6218 0.0000 -0.0000 -7.7968 -5.3388 -58.0281 4.5326 7.1250 -0.0000 -0.0000 87.0228 -74.0184 -70.2859
3.5867 17.4332 17.6094 171.8540 -4.6548 -150.8880 0.0000 0.0000 0.0000 -5.6999 -29.7943 -55.1070 19.5841 19.9959 88.7840 1.4198 -5.8752 -21.3685 0.9926 -6.3407 -17.7763 0.0000 0.0000 0.0000 8.6909 14.1435 -30.5371 -0.4924 -4.4991 12.4853 -0.6868 -4.9472 -18.2273 -1.1652 6.8525 -19.2792 -8.0840 -3.9380 -19.8517 -1.0410 -3.2864 1.8807 2.3610 -2.1237 13.7739 -0.4962 -3.2022 -1.5480 0.4332 -2.5424 22.9976 0.1468 -0.5205 7.2985 0.0000 0.0000 0.0000 -80.6443 -2.4409 22.8341 17.2858 -27.2330 -4.2173 -0.0000 -0.0000 1.1872 20.9969 -11.9618 -4.5481 -7.1250 0.0000 -0.0000 -4.3180 17.2169 2.8546 0.0000 0.0000 0.0000 91.4204 -9.1317 9.5077 -20.3196 31.0255 -5.6952 0.0000 -0.0000 -7.8869 -6.2075 -58.0919 5.2753 7.1250 -0.0000 -0.0000 87.1977 -74.3157 -70.8037
